<svg width="29" height="28" viewBox="0 0 29 28" fill="none" xmlns="http://www.w3.org/2000/svg">
<g clip-path="url(#clip0_6_299)">
<path d="M4.76828 28H13.9011V18.0469H10.6198V14.7656H13.9011V10.6641C13.9011 8.40244 15.741 6.5625 18.0027 6.5625H22.1042V9.84375H18.823C17.9183 9.84375 17.1823 10.5797 17.1823 11.4844V14.7656H21.9562L21.4093 18.0469H17.1823V28H24.5652C26.8268 28 28.6667 26.1601 28.6667 23.8984V4.10156C28.6667 1.83994 26.8268 0 24.5652 0H4.76828C2.50665 0 0.666718 1.83994 0.666718 4.10156V23.8984C0.666718 26.1601 2.50665 28 4.76828 28ZM2.30734 4.10156C2.30734 2.74463 3.41135 1.64062 4.76828 1.64062H24.5652C25.9221 1.64062 27.0261 2.74463 27.0261 4.10156V23.8984C27.0261 25.2554 25.9221 26.3594 24.5652 26.3594H18.823V19.6875H22.7991L23.8929 13.125H18.823V11.4844H23.7448V4.92188H18.0027C14.8363 4.92188 12.2605 7.49774 12.2605 10.6641V13.125H8.97922V19.6875H12.2605V26.3594H4.76828C3.41135 26.3594 2.30734 25.2554 2.30734 23.8984V4.10156Z" fill="white"/>
</g>
<defs>
<clipPath id="clip0_6_299">
<rect width="28" height="28" fill="white" transform="translate(0.666718)"/>
</clipPath>
</defs>
</svg>
