<svg width="28" height="28" viewBox="0 0 28 28" fill="none" xmlns="http://www.w3.org/2000/svg">
<path d="M5.54167 28H22.4583C25.5138 28 28 25.5138 28 22.4583V5.54167C28 2.48617 25.5138 0 22.4583 0H5.54167C2.48617 0 0 2.48617 0 5.54167V22.4583C0 25.5138 2.48617 28 5.54167 28ZM1.75 5.54167C1.75 3.451 3.451 1.75 5.54167 1.75H22.4583C24.549 1.75 26.25 3.451 26.25 5.54167V22.4583C26.25 24.549 24.549 26.25 22.4583 26.25H5.54167C3.451 26.25 1.75 24.549 1.75 22.4583V5.54167Z" fill="white"/>
<path d="M14.0007 21.1517C17.9441 21.1517 21.1524 17.9434 21.1524 14.0001C21.1524 10.0567 17.9441 6.84839 14.0007 6.84839C10.0574 6.84839 6.84906 10.0567 6.84906 14.0001C6.84906 17.9434 10.0574 21.1517 14.0007 21.1517ZM14.0007 8.59839C16.9792 8.59839 19.4024 11.0216 19.4024 14.0001C19.4024 16.9786 16.9792 19.4017 14.0007 19.4017C11.0222 19.4017 8.59906 16.9786 8.59906 14.0001C8.59906 11.0216 11.0222 8.59839 14.0007 8.59839V8.59839Z" fill="white"/>
<path d="M21.4182 8.58891C22.5686 8.58891 23.4354 7.72558 23.4354 6.58108C23.4354 5.38758 22.5231 4.57324 21.4194 4.57324C20.2691 4.57324 19.4022 5.43658 19.4022 6.58108C19.4022 7.77224 20.3099 8.58891 21.4182 8.58891ZM21.6247 6.38858C21.9934 6.71408 21.1522 7.10958 21.1522 6.58224C21.1522 6.26724 21.5804 6.34891 21.6247 6.38858Z" fill="white"/>
</svg>
